<svg height="496pt" viewBox="0 0 496 496.01039" width="496pt" xmlns="http://www.w3.org/2000/svg"><path d="m56.003906 96.011719c0 8.835937-7.164062 16-16 16-8.835937 0-16-7.164063-16-16 0-8.835938 7.164063-16 16-16 8.835938 0 16 7.164062 16 16zm0 0" fill="#f5c70c"/><path d="m472.003906 376.011719-8 112h-32l-8-112zm0 0" fill="#736357"/><path d="m424.003906 376.011719 8 112h16l8-112zm0 0" fill="#998675"/><path d="m72.003906 376.011719-8 112h-32l-8-112zm0 0" fill="#736357"/><path d="m24.003906 376.011719 8 112h16l8-112zm0 0" fill="#998675"/><path d="m8.003906 328.011719h480v48h-480zm0 0" fill="#736357"/><path d="m8.003906 328.011719h456v48h-456zm0 0" fill="#998675"/><path d="m24.003906 232.011719h448v96h-448zm0 0" fill="#736357"/><path d="m24.003906 232.011719h424v96h-424zm0 0" fill="#998675"/><path d="m88.003906 232.011719 200-200-24-24-224 224zm0 0" fill="#736357"/><path d="m40.003906 232.011719h24l208-208-12-12zm0 0" fill="#998675"/><path d="m472.003906 336.011719h-448c-4.414062 0-8-3.578125-8-8v-96c0-4.425781 3.585938-8 8-8h160v16h-152v80h432v-80h-152v-16h160c4.417969 0 8 3.574219 8 8v96c0 4.421875-3.582031 8-8 8zm0 0"/><path d="m93.660156 237.667969-11.3125-11.3125 194.34375-194.34375-12.6875-12.6875-218.34375 218.34375-11.3125-11.3125 224-224c3.128906-3.128907 8.183594-3.128907 11.3125 0l24 24c3.128906 3.125 3.128906 8.183593 0 11.3125zm0 0"/><path d="m250.347656 69.671875 11.3125-11.316406 167.996094 167.996093-11.3125 11.316407zm0 0"/><path d="m56.003906 296.011719h384v32h-384zm0 0" fill="#fff"/><path d="m96.003906 296.011719h16v32h-16zm0 0"/><path d="m128.003906 296.011719h16v32h-16zm0 0"/><path d="m384.003906 296.011719h16v32h-16zm0 0"/><path d="m352.003906 296.011719h16v32h-16zm0 0"/><path d="m320.003906 296.011719h16v32h-16zm0 0"/><path d="m160.003906 296.011719h16v32h-16zm0 0"/><path d="m288.003906 296.011719h16v32h-16zm0 0"/><path d="m192.003906 296.011719h16v32h-16zm0 0"/><path d="m256.003906 296.011719h16v32h-16zm0 0"/><path d="m224.003906 296.011719h16v32h-16zm0 0"/><path d="m312.003906 208.011719v56h-128v-80h104zm0 0" fill="#0ff"/><path d="m272.003906 184.011719h-88v80h112v-56zm0 0" fill="#fff"/><path d="m64.003906 496.011719h-32c-4.191406 0-7.679687-3.242188-7.984375-7.433594l-8-112c-.160156-2.214844.617188-4.398437 2.128907-6.023437 1.519531-1.625 3.632812-2.542969 5.855468-2.542969h48c2.226563 0 4.335938.917969 5.855469 2.542969 1.515625 1.625 2.28125 3.808593 2.128906 6.023437l-8 112c-.304687 4.191406-3.792969 7.433594-7.984375 7.433594zm-24.550781-16h17.105469l6.855468-96h-30.816406zm0 0"/><path d="m464.003906 496.011719h-32c-4.191406 0-7.679687-3.242188-7.984375-7.433594l-8-112 15.960938-1.144531 7.472656 104.578125h17.105469l7.46875-104.570313 15.960937 1.144532-8 112c-.304687 4.183593-3.792969 7.425781-7.984375 7.425781zm0 0"/><path d="m32.003906 448.011719h32v16h-32zm0 0"/><path d="m432.003906 448.011719h32v16h-32zm0 0"/><path d="m384.003906 96.011719c0 8.835937-7.164062 16-16 16-8.835937 0-16-7.164063-16-16 0-8.835938 7.164063-16 16-16 8.835938 0 16 7.164062 16 16zm0 0" fill="#f5c70c"/><path d="m448.003906 80.011719c0 8.835937-7.164062 16-16 16-8.835937 0-16-7.164063-16-16 0-8.835938 7.164063-16 16-16 8.835938 0 16 7.164062 16 16zm0 0" fill="#f5c70c"/><path d="m432.003906 104.011719c-13.230468 0-24-10.769531-24-24 0-13.234375 10.769532-24 24-24 13.234375 0 24 10.765625 24 24 0 13.230469-10.765625 24-24 24zm0-32c-4.40625 0-8 3.582031-8 8 0 4.414062 3.59375 8 8 8 4.410156 0 8-3.585938 8-8 0-4.417969-3.589844-8-8-8zm0 0"/><path d="m368.003906 120.011719c-13.230468 0-24-10.769531-24-24 0-13.234375 10.769532-24 24-24 13.234375 0 24 10.765625 24 24 0 13.230469-10.765625 24-24 24zm0-32c-4.40625 0-8 3.582031-8 8 0 4.414062 3.59375 8 8 8 4.410156 0 8-3.585938 8-8 0-4.417969-3.589844-8-8-8zm0 0"/><path d="m392.003906 96.011719h-16v-64c0-3.335938 2.074219-6.320313 5.191406-7.496094l64-24c2.464844-.929687 5.203126-.578125 7.371094.910156 2.152344 1.503907 3.4375 3.960938 3.4375 6.585938v72h-16v-60.457031l-48 18zm0 0"/><path d="m40.003906 120.011719c-6.40625 0-12.4375-2.496094-16.976562-7.035157-9.351563-9.359374-9.351563-24.574218 0-33.933593 9.066406-9.066407 24.875-9.066407 33.9375 0 9.351562 9.359375 9.351562 24.574219 0 33.933593-4.519532 4.539063-10.550782 7.035157-16.960938 7.035157zm0-32c-2.132812 0-4.144531.832031-5.65625 2.34375-3.117187 3.117187-3.117187 8.191406 0 11.3125 3.027344 3.03125 8.296875 3.03125 11.3125 0 3.121094-3.121094 3.121094-8.195313 0-11.3125-1.511718-1.511719-3.519531-2.34375-5.65625-2.34375zm0 0"/><path d="m64.003906 96.011719h-16v-88c0-3.234375 1.953125-6.160157 4.9375-7.394531 2.984375-1.253907 6.421875-.5585942 8.71875 1.738281l40 40-11.3125 11.3125-26.34375-26.34375zm0 0"/><path d="m8.003906 136.011719h32v16h-32zm0 0"/><path d="m88.003906 80.011719h16v32h-16zm0 0"/><path d="m112.003906 16.011719h32v16h-32zm0 0"/><path d="m328.003906 8.011719h16v32h-16zm0 0"/><path d="m424.003906 120.011719h32v16h-32zm0 0"/><path d="m480.003906 72.011719h16v32h-16zm0 0"/><path d="m394.347656 157.671875 11.3125-11.316406 24 24.003906-11.3125 11.3125zm0 0"/><path d="m312.003906 272.011719h-128c-4.414062 0-8-3.578125-8-8v-80c0-4.425781 3.585938-8 8-8h104c2.121094 0 4.160156.839843 5.65625 2.34375l24 24c1.503906 1.496093 2.34375 3.527343 2.34375 5.65625v56c0 4.421875-3.582031 8-8 8zm-120-16h112v-44.6875l-19.3125-19.3125h-92.6875zm0 0"/><path d="m240.003906 184.011719h16v80h-16zm0 0"/><path d="m448.003906 328.011719h-16v-24h-368v24h-16v-32c0-4.425781 3.585938-8 8-8h384c4.417969 0 8 3.574219 8 8zm0 0"/><path d="m488.003906 384.011719h-480c-4.414062 0-7.99999975-3.578125-7.99999975-8v-48c0-4.425781 3.58593775-8 7.99999975-8h480c4.417969 0 8 3.574219 8 8v48c0 4.421875-3.582031 8-8 8zm-472-16h464v-32h-464zm0 0"/></svg>